PathFileType	4	(X/Y/Z)	..\data\2015043\dynamic\2015043_C5_05.trc
DataRate	CameraRate	NumFrames	NumMarkers	Units	OrigDataRate	OrigDataStartFrame	OrigNumFrames
100.000000	100.000000	4	52	mm	100.000000	0	167
Frame#	Time	L_IAS			L_IPS			R_IPS			R_IAS			L_FTC			L_FLE			L_FME			L_FAX			L_TTC			L_FAL			L_TAM			L_FCC			L_FM1			L_FM2			L_FM5			R_FTC			R_FLE			R_FME			R_FAX			R_TTC			R_FAL			R_TAM			R_FCC			R_FM1			R_FM2			R_FM5			CV7			TV10			SXS			SJN			L_SIA			L_SRS			L_SAA			L_SAE			L_HLE			L_HME			L_UOA			L_RSP			L_UHE			L_HM2			L_HM5			R_SIA			R_SRS			R_SAA			R_SAE			R_HLE			R_HME			R_UOA			R_RSP			R_UHE			R_HM2			R_HM5			
		X1	Y1	Z1	X2	Y2	Z2	X3	Y3	Z3	X4	Y4	Z4	X5	Y5	Z5	X6	Y6	Z6	X7	Y7	Z7	X8	Y8	Z8	X9	Y9	Z9	X10	Y10	Z10	X11	Y11	Z11	X12	Y12	Z12	X13	Y13	Z13	X14	Y14	Z14	X15	Y15	Z15	X16	Y16	Z16	X17	Y17	Z17	X18	Y18	Z18	X19	Y19	Z19	X20	Y20	Z20	X21	Y21	Z21	X22	Y22	Z22	X23	Y23	Z23	X24	Y24	Z24	X25	Y25	Z25	X26	Y26	Z26	X27	Y27	Z27	X28	Y28	Z28	X29	Y29	Z29	X30	Y30	Z30	X31	Y31	Z31	X32	Y32	Z32	X33	Y33	Z33	X34	Y34	Z34	X35	Y35	Z35	X36	Y36	Z36	X37	Y37	Z37	X38	Y38	Z38	X39	Y39	Z39	X40	Y40	Z40	X41	Y41	Z41	X42	Y42	Z42	X43	Y43	Z43	X44	Y44	Z44	X45	Y45	Z45	X46	Y46	Z46	X47	Y47	Z47	X48	Y48	Z48	X49	Y49	Z49	X50	Y50	Z50	X51	Y51	Z51	X52	Y52	Z52	

1	0	-1154.685913085938	977.1497192382815	131.3110046386718	-1335.627197265625	989.6740722656252	206.8914337158202	-1334.516967773438	990.7684326171877	304.3815307617186	-1160.735107421875	983.8552856445315	372.6977233886718	-1253.989501953125	882.7060546875002	76.05209350585923	-1313.357543945313	471.9926757812501	122.3941574096678	-1312.690307617188	468.361053466797	241.8988800048827	-1346.490966796875	407.6987304687501	121.2020263671874	-1294.939819335938	380.6101989746094	178.5774078369139	-1491.748901367188	97.48744964599612	192.865753173828	-1461.03271484375	102.5408248901367	284.324981689453	-1550.922973632813	54.8754005432129	237.3587799072264	-1349.138549804688	21.31782150268555	259.5701904296874	-1344.52685546875	36.40607452392579	197.7096862792968	-1401.688842773438	25.30807876586915	147.7196960449217	-1249.720825195313	887.0065917968752	422.3625488281249	-1074.15625	487.3711853027345	405.2740173339844	-1060.232177734375	481.6973266601564	278.2909851074218	-1059.337158203125	423.4447326660157	411.6803894042969	-989.343200683594	437.2740478515626	355.7041320800781	-947.943054199219	87.05957794189455	368.5007324218749	-918.2070312500002	121.4736785888672	284.6210632324218	-968.152282714844	26.68773269653321	314.2542419433593	-780.1524047851565	103.8791046142578	310.8996582031249	-790.6818847656252	105.7004089355469	361.7833251953124	-832.433044433594	70.57744598388673	407.4894104003906	-1257.466186523438	1496.728515625	239.4452972412109	-1331.419189453125	1272.472778320313	243.2172393798827	-1101.78955078125	1256.545532226563	261.1225280761718	-1147.419921875	1411.333618164063	255.5357971191405	-1349.246704101563	1297.822387695313	144.7396240234374	-1311.93017578125	1420.236450195313	146.9437866210936	-1252.53564453125	1420.097412109375	61.51459121704087	-1208.190063476563	1420.214233398438	44.8993759155272	-1153.570678710938	1095.917602539063	-43.37655258178726	-1193.34619140625	1066.464111328125	31.33318138122545	-1183.614379882813	1045.632690429688	-27.61805534362808	-947.2562255859377	947.8699951171877	60.16855239868154	-960.0195312500002	916.2956542968752	-7.571521282196164	-870.3433837890627	897.3369750976565	73.81053161621084	-929.3011474609377	852.3508300781252	1.859544396400338	-1365.01318359375	1308.38671875	319.4001464843749	-1328.050048828125	1428.494262695313	319.4398803710936	-1300.312866210938	1430.68701171875	418.5986328124999	-1273.149047851563	1425.188598632813	456.2194213867187	-1327.25634765625	1099.447387695313	515.485107421875	-1348.859375	1092.431274414063	444.6426086425781	-1357.960571289063	1071.11376953125	479.9052124023437	-1208.006958007813	851.7068481445315	496.1227416992187	-1281.322021484375	845.4377441406252	532.4794921875	-1182.608276367188	767.2329711914064	504.1864624023437	-1279.492797851563	771.5551757812502	538.55224609375	
2	0.01	-1142.708740234375	975.9495239257815	131.3625640869139	-1323.3955078125	988.2362060546877	208.0704193115233	-1321.687622070313	989.355407714844	305.5582580566405	-1147.661499023438	982.5686035156252	372.9327392578124	-1242.933959960938	881.5072021484377	76.52964019775376	-1304.149780273438	471.3992919921876	122.4877624511717	-1302.982543945313	467.6443481445314	242.1728668212889	-1338.392700195313	407.5686035156251	121.2955017089842	-1287.196411132813	379.3705444335938	178.6088562011717	-1490.28857421875	100.1634292602539	191.965850830078	-1459.693115234375	104.7557601928711	283.5347290039061	-1550.508422851563	58.70492935180665	236.3144378662108	-1349.203125	21.39385795593262	259.3353576660155	-1344.198364257813	36.48511123657227	197.4316864013671	-1401.330688476563	25.28778076171876	147.5211639404295	-1236.32080078125	885.4517822265627	423.0653686523437	-1061.569091796875	486.1168823242189	404.6488647460938	-1048.335693359375	480.6015930175782	277.7155151367187	-1046.574462890625	422.1831359863282	410.8361511230469	-976.8873291015627	436.5797119140626	354.6274719238281	-933.006286621094	86.81472778320314	367.0828247070312	-903.6291503906252	121.4722213745117	283.1757507324218	-952.9710693359377	26.50361824035645	312.8231811523437	-765.2469482421876	104.3998184204102	309.2055664062499	-775.7457275390627	105.9948425292969	360.0956115722656	-817.2303466796877	70.68061828613283	405.6778259277344	-1245.276000976563	1495.4775390625	240.7382659912109	-1319.146850585938	1271.215576171875	244.2726440429686	-1089.699462890625	1255.158325195313	261.7663879394531	-1135.129516601563	1410.034423828125	256.6667480468749	-1337.043701171875	1296.704833984375	145.7425231933592	-1299.784790039063	1419.17724609375	148.0353698730467	-1240.408325195313	1419.1494140625	62.54195404052721	-1195.99853515625	1419.23193359375	46.03847503662095	-1141.095825195313	1095.223754882813	-42.87528228759781	-1180.915161132813	1065.422973632813	31.78872489929185	-1170.973876953125	1044.670532226563	-27.20959663391128	-934.0722656250002	948.8126220703127	61.37764358520498	-946.3211059570315	917.065368652344	-6.395251274109004	-856.8344726562502	898.8784179687502	75.39263153076163	-915.1753540039065	853.3422851562502	3.258847951888927	-1352.855102539063	1306.9248046875	320.1320190429686	-1315.895874023438	1427.036254882813	320.500274658203	-1288.272583007813	1428.973022460938	419.6979980468749	-1261.107421875	1423.39794921875	457.3500976562499	-1315.543090820313	1097.595947265625	515.5047607421875	-1336.75244140625	1090.64599609375	444.5739135742187	-1346.1611328125	1069.5732421875	479.7600402832031	-1198.615234375	848.819274902344	496.6624145507812	-1272.077880859375	843.3468017578127	532.8666381835938	-1174.099365234375	764.0998535156251	504.9018249511718	-1271.040283203125	769.4483032226565	538.9778442382812	
3	0.02	-1130.371215820313	974.8527832031252	131.5765533447264	-1310.836669921875	987.0911865234377	209.1907806396483	-1308.61767578125	988.2767333984377	306.6804199218749	-1134.40478515625	981.532409667969	373.2833251953124	-1231.4609375	880.4661254882815	77.1114120483397	-1294.472290039063	470.9392700195314	122.5441894531249	-1292.785278320313	466.9537963867189	242.4568634033202	-1329.905151367188	407.6148071289064	121.3445358276366	-1279.022338867188	378.2117004394532	178.5021209716795	-1488.637573242188	103.2129592895508	190.935592651367	-1458.023315429688	107.2896804809571	282.5325927734374	-1549.886352539063	63.07453918457033	235.1770172119139	-1349.314208984375	21.422119140625	259.1133728027343	-1343.912353515625	36.48932647705079	197.125762939453	-1401.007934570313	25.18836402893067	147.3412475585936	-1222.785400390625	884.2567138671877	423.8478088378906	-1048.5478515625	485.2720947265626	404.0465087890625	-1035.727416992188	480.0775451660157	277.2965087890624	-1033.686889648438	421.2056579589845	410.0317077636719	-964.2627563476565	435.8397827148439	353.5539245605468	-920.8546142578127	86.28572845458986	365.5442199707031	-891.4427490234377	120.8434066772461	281.6134643554687	-941.0217285156252	26.26863479614259	311.2973022460937	-753.0472412109376	103.1022186279297	307.6262817382812	-763.5579833984376	104.6274642944336	358.5158996582031	-805.144714355469	69.57774353027345	403.8881225585938	-1233.032836914063	1494.440185546875	242.1197967529296	-1306.689086914063	1270.118286132813	245.3418426513671	-1077.386596679688	1254.103637695313	262.5677795410156	-1122.757934570313	1408.991088867188	257.8890380859374	-1324.679443359375	1295.7333984375	146.821334838867	-1287.552734375	1418.2880859375	149.2109222412108	-1228.18701171875	1418.395263671875	63.67221832275377	-1183.738647460938	1418.479614257813	47.25101470947252	-1128.871704101563	1094.697998046875	-42.26929092407241	-1168.703247070313	1064.612426757813	32.38499069213854	-1158.635986328125	1043.934692382813	-26.66072463989273	-921.3035278320315	949.503112792969	62.42588806152334	-933.2020263671877	917.621765136719	-5.368065357208367	-843.8173828125002	900.0246582031252	76.69300079345695	-901.718444824219	854.0654296875002	4.44847583770741	-1340.562133789063	1305.59375	320.9234924316405	-1303.668701171875	1425.737426757813	321.6329650878905	-1276.172729492188	1427.432373046875	420.8712768554687	-1249.0234375	1421.791137695313	458.5508728027343	-1303.631103515625	1095.923583984375	515.6123657226562	-1324.401611328125	1089.009765625	444.6058349609374	-1334.1865234375	1068.219970703125	479.7194213867187	-1189.043212890625	846.128601074219	497.2640380859374	-1262.623657226563	841.4672851562502	533.3450927734375	-1165.4130859375	761.1773681640626	505.6611633300781	-1262.381469726563	767.5650634765626	539.5022583007812	
4	0.03	-1117.679565429688	973.870788574219	131.9564971923827	-1297.944702148438	986.2561035156252	210.2454528808593	-1295.312377929688	987.5562133789065	307.7411804199218	-1120.958984375	980.7825927734377	373.7522277832031	-1219.545043945313	879.5877075195315	77.7992782592772	-1284.271240234375	470.6177062988282	122.5348663330077	-1282.011108398438	466.2598876953126	242.7189636230468	-1320.97705078125	407.8557434082032	121.324851989746	-1270.349731445313	377.1328430175782	178.1914825439452	-1486.729125976563	106.6723327636719	189.7907409667967	-1455.910400390625	110.1423797607422	281.300811767578	-1548.945556640625	68.05953216552736	233.993438720703	-1349.494750976563	21.40044212341309	258.9324645996093	-1343.722534179688	36.39170074462891	196.8102111816405	-1400.766357421875	25.02292251586915	147.2150421142577	-1209.11181640625	883.4619750976565	424.7074890136718	-1035.149291992188	484.8249816894532	403.4720153808594	-1022.53271484375	480.0866088867189	277.0193786621093	-1020.673400878906	420.5133056640626	409.2890319824219	-951.4976806640627	435.079315185547	352.4640502929687	-911.183288574219	85.46727752685548	363.9791870117187	-881.4144287109377	119.6001663208008	280.0007934570312	-932.0025634765627	25.95677375793458	309.7954101562499	-743.2749023437501	100.0795440673828	306.1463317871093	-753.8053588867189	101.6881332397461	357.0366210937499	-795.8291015625002	67.3324661254883	402.1664733886719	-1220.728515625	1493.634643554688	243.5853881835937	-1294.043701171875	1269.204956054688	246.4219360351561	-1064.836181640625	1253.404663085938	263.5287475585937	-1110.29833984375	1408.223876953125	259.2011108398437	-1312.139526367188	1294.931762695313	147.963180541992	-1275.22021484375	1417.590209960938	150.4631958007811	-1215.852905273438	1417.858276367188	64.90406799316393	-1171.388793945313	1417.982299804688	48.5358963012694	-1116.9033203125	1094.360229492188	-41.55766296386733	-1156.712768554688	1064.059448242188	33.12655639648424	-1146.611938476563	1043.44775390625	-25.96936988830581	-908.9531250000002	949.9463500976565	63.30450057983388	-920.6705322265627	917.9678955078127	-4.495681762695426	-831.2935180664065	900.7762451171877	77.69551849365226	-888.9434814453127	854.5196533203127	5.419592857360731	-1328.120239257813	1304.412475585938	321.7707519531249	-1291.358520507813	1424.616821289063	322.8321228027343	-1264.00537109375	1426.088745117188	422.1108398437499	-1236.889892578125	1420.392944335938	459.8150634765624	-1291.526245117188	1094.457885742188	515.8059692382812	-1311.819580078125	1087.55419921875	444.7324218749999	-1322.045654296875	1067.0810546875	479.7782592773437	-1179.276977539063	843.668884277344	497.9263916015624	-1252.94970703125	839.827331542969	533.9071044921875	-1156.531127929688	758.4996948242189	506.4611511230469	-1253.50048828125	765.9335937500001	540.1176147460938	
